<svg id="Layer_1" data-name="Layer 1" xmlns="http://www.w3.org/2000/svg" viewBox="0 0 158.57 182.19"><defs><style>.cls-1{fill:#fff;}</style></defs><title>Artboard 7 copy</title><path class="cls-1" d="M81.15,24.57H77.42A52.9,52.9,0,0,0,24.57,77.42v27.35a52.9,52.9,0,0,0,52.85,52.85h3.73A52.91,52.91,0,0,0,134,104.77V77.42A52.91,52.91,0,0,0,81.15,24.57ZM39.94,128.31a42.68,42.68,0,0,1-2.62-4.79,21.4,21.4,0,0,1,16.75-8c10.14,0,20.92,8.57,20.92,18.09h0a28.82,28.82,0,0,0-35-5.3ZM75,149a44.13,44.13,0,0,1-30.59-14.74A21.28,21.28,0,0,1,54.07,132c10.14,0,18.65,7.58,20.93,17Zm8.57,0h0c2.27-9.45,10.78-17,20.93-17a21.31,21.31,0,0,1,9.66,2.29A44.15,44.15,0,0,1,83.57,149Zm35.06-20.67a28.82,28.82,0,0,0-35.06,5.31h0c0-10,10.77-18.1,20.93-18.1a21.4,21.4,0,0,1,16.75,8A44.34,44.34,0,0,1,118.63,128.31Zm6.8-23.54a43.94,43.94,0,0,1-1.39,11,28.85,28.85,0,0,0-40.47,1.4V99.3A15.06,15.06,0,0,1,103,85.94a18.13,18.13,0,0,1,4.44,2,22.44,22.44,0,0,1,4,3.27l.1.09A2.14,2.14,0,0,0,115.11,89a18.51,18.51,0,0,0-9.21-10.13,20.82,20.82,0,0,0-14.29-1.52,22.18,22.18,0,0,0-6.82,2.93c-.42.27-.83.58-1.23.88,0,0-.1-5.62,0-7.5a.43.43,0,0,1,0,0,15.36,15.36,0,0,1,6.37-11.32,15.3,15.3,0,0,1,4-2,15.76,15.76,0,0,1,9.08-.08,18.92,18.92,0,0,1,4.44,2,23.34,23.34,0,0,1,4,3.27l.1.1a2.14,2.14,0,0,0,3.54-2.22,18.53,18.53,0,0,0-9.21-10.14,20.81,20.81,0,0,0-14.29-1.51,21.71,21.71,0,0,0-6.82,2.93,22.18,22.18,0,0,0-5.43,5.07l-.08.1-.07-.1a22.22,22.22,0,0,0-5.44-5.07A21.66,21.66,0,0,0,67,51.74a20.81,20.81,0,0,0-14.29,1.51,18.5,18.5,0,0,0-9.21,10.14A2.14,2.14,0,0,0,47,65.61l.09-.1a23,23,0,0,1,4-3.27,18.86,18.86,0,0,1,4.43-2,15.76,15.76,0,0,1,9.08.08,15,15,0,0,1,4,2,15.48,15.48,0,0,1,3.19,3.07A14.24,14.24,0,0,1,75,73.63v7.56c-.4-.3-.8-.6-1.22-.87A22.13,22.13,0,0,0,67,77.39a20.81,20.81,0,0,0-14.29,1.52A18.48,18.48,0,0,0,43.46,89,2.14,2.14,0,0,0,47,91.26l.09-.09a22.15,22.15,0,0,1,4-3.27,18.07,18.07,0,0,1,4.43-2,15.67,15.67,0,0,1,9.08.08,15.27,15.27,0,0,1,4,2A15.43,15.43,0,0,1,75,99.28v17.9a28.85,28.85,0,0,0-40.47-1.4,44.4,44.4,0,0,1-1.38-11V77.42a44.36,44.36,0,0,1,33.27-42.9h.24a10.42,10.42,0,0,1,3.26.05A7.86,7.86,0,0,1,73.1,36a12,12,0,0,1,2.83,3.18,16.58,16.58,0,0,1,1.91,4.41,1.52,1.52,0,0,0,1,1,1.49,1.49,0,0,0,1.87-1l0-.06a15,15,0,0,1,4.9-7.41,8.47,8.47,0,0,1,3.16-1.54,9.77,9.77,0,0,1,3.11-.14l.22,0h0a44.37,44.37,0,0,1,33.28,42.9Z"/></svg>