<svg id="Layer_1" data-name="Layer 1" xmlns="http://www.w3.org/2000/svg" viewBox="0 0 229.98 283.56"><defs><style>.cls-1{fill:#155434;}.cls-2{fill:#89e5b7;}</style></defs><title>Artboard 3</title><path class="cls-1" d="M49.13,228.23q0,12.45-9.39,12.48a10.74,10.74,0,0,1-6.62-1.9V259H24.57V200.46q0-12.45,12.3-12.48t12.26,12.48Zm-16,0q0,4,3.75,4t3.71-4V200.46q0-4-3.75-4t-3.71,4Z"/><path class="cls-1" d="M64.33,239.75H55.78V169.7h8.55Z"/><path class="cls-1" d="M87,200.43c0-2.68-1.22-4-3.68-4h-.06q-3.72,0-3.72,4V206H71v-5.52Q71,188,83.28,188t12.27,12.45v27.8q0,12.48-12.27,12.48T71,228.23v-1.48q0-12.45,9.4-12.48a10.71,10.71,0,0,1,6.61,1.9Zm-7.46,27.8q0,4,3.75,4c2.48,0,3.71-1.34,3.71-4v-1.51c0-2.66-1.25-4-3.71-4s-3.75,1.34-3.75,4Z"/><path class="cls-1" d="M110.75,239.75h-8.56V200.43q0-12.45,12.27-12.45t12.3,12.45v39.32h-8.55V200.43q0-4-3.72-4h-.06q-3.68,0-3.68,4Z"/><path class="cls-1" d="M145.37,188.91H152v8.44h-6.62v42.4h-8.55v-42.4h-6.13v-8.44h6.13V169.7h8.55Z"/><path class="cls-1" d="M151.32,229.93h9.82v9.82h-9.82Z"/><path class="cls-1" d="M196.86,174.59h8.55v8.56h-8.55Z"/><path class="cls-1" d="M181.66,200.43q0-4-3.69-4h-.06q-3.71,0-3.71,4V206h-8.56v-5.52q0-12.45,12.3-12.45t12.27,12.45v27.8q0,12.48-12.27,12.48t-12.3-12.48v-1.48q0-12.45,9.4-12.48a10.74,10.74,0,0,1,6.62,1.9Zm-7.46,27.8q0,4,3.74,4t3.72-4v-1.51q0-4-3.72-4t-3.74,4Z"/><path class="cls-1" d="M196.86,188.91h8.55v50.84h-8.55Z"/><rect class="cls-2" x="64.56" y="28.85" width="100.86" height="124.48" rx="48.56" ry="48.56"/><path class="cls-1" d="M116.85,24.57h-3.73A52.91,52.91,0,0,0,60.27,77.42v27.35a52.91,52.91,0,0,0,52.85,52.85h3.73a52.91,52.91,0,0,0,52.86-52.85V77.42A52.91,52.91,0,0,0,116.85,24.57ZM75.64,128.31A44.34,44.34,0,0,1,73,123.52a21.41,21.41,0,0,1,16.75-8c10.15,0,20.93,8.57,20.93,18.09h0a28.83,28.83,0,0,0-35.06-5.3ZM110.7,149a44.15,44.15,0,0,1-30.59-14.74A21.31,21.31,0,0,1,89.77,132c10.14,0,18.65,7.58,20.93,17Zm8.57,0h0c2.28-9.45,10.79-17,20.93-17a21.35,21.35,0,0,1,9.67,2.29A44.17,44.17,0,0,1,119.27,149Zm35.06-20.67a28.82,28.82,0,0,0-35.06,5.31h0c0-10,10.78-18.1,20.93-18.1a21.4,21.4,0,0,1,16.75,8A42.68,42.68,0,0,1,154.33,128.31Zm6.8-23.54a44.4,44.4,0,0,1-1.38,11,28.86,28.86,0,0,0-40.48,1.4V99.3a15.61,15.61,0,0,1,3.19-8.24,14.32,14.32,0,0,1,7.18-5,15.64,15.64,0,0,1,9.07-.08,18,18,0,0,1,4.44,2,22.15,22.15,0,0,1,4,3.27l.09.09A2.14,2.14,0,0,0,150.81,89a18.48,18.48,0,0,0-9.21-10.13,20.81,20.81,0,0,0-14.29-1.52,22.13,22.13,0,0,0-6.81,2.93c-.43.27-.83.58-1.23.88,0,0-.1-5.62,0-7.5v0a15.64,15.64,0,0,1,3.19-8.25,15.24,15.24,0,0,1,3.19-3.07,15,15,0,0,1,4-2,15.73,15.73,0,0,1,9.07-.08,18.74,18.74,0,0,1,4.44,2,23,23,0,0,1,4,3.27l.09.1a2.14,2.14,0,0,0,3.54-2.22,18.5,18.5,0,0,0-9.21-10.14,20.81,20.81,0,0,0-14.29-1.51,21.66,21.66,0,0,0-6.81,2.93,22.22,22.22,0,0,0-5.44,5.07l-.07.1-.08-.1a22.18,22.18,0,0,0-5.43-5.07,21.71,21.71,0,0,0-6.82-2.93,20.81,20.81,0,0,0-14.29,1.51,18.5,18.5,0,0,0-9.21,10.14,2.14,2.14,0,0,0,3.54,2.22l.1-.1a23.34,23.34,0,0,1,4-3.27,18.74,18.74,0,0,1,4.44-2,15.72,15.72,0,0,1,9.07.08,15.2,15.2,0,0,1,4,2,15.74,15.74,0,0,1,3.19,3.07,14.38,14.38,0,0,1,3.18,8.23,0,0,0,0,0,0,0v7.54c-.4-.3-.8-.6-1.22-.87a22.18,22.18,0,0,0-6.82-2.93,20.82,20.82,0,0,0-14.29,1.52A18.48,18.48,0,0,0,79.16,89a2.14,2.14,0,0,0,3.54,2.22l.1-.09a22.44,22.44,0,0,1,4-3.27,18,18,0,0,1,4.44-2A15.09,15.09,0,0,1,110.7,99.28v17.9a28.85,28.85,0,0,0-40.47-1.4,44.41,44.41,0,0,1-1.39-11V77.42a44.37,44.37,0,0,1,33.28-42.9h.23a10.42,10.42,0,0,1,3.26.05,7.9,7.9,0,0,1,3.2,1.44,12.22,12.22,0,0,1,2.83,3.18,16.9,16.9,0,0,1,1.91,4.41,1.51,1.51,0,0,0,1,1,1.49,1.49,0,0,0,1.87-1l0-.06a15.08,15.08,0,0,1,4.9-7.41,8.55,8.55,0,0,1,3.16-1.54,9.83,9.83,0,0,1,3.12-.14l.21,0h0a44.36,44.36,0,0,1,33.28,42.9Z"/></svg>